<?xml version="1.0" standalone="no"?>
<!DOCTYPE svg PUBLIC "-//W3C//DTD SVG 20010904//EN"
 "http://www.w3.org/TR/2001/REC-SVG-20010904/DTD/svg10.dtd">
<svg version="1.0" xmlns="http://www.w3.org/2000/svg"
 width="254.000000pt" height="255.000000pt" viewBox="0 0 254.000000 255.000000"
 preserveAspectRatio="xMidYMid meet">

<g transform="translate(0.000000,255.000000) scale(0.100000,-0.100000)"
fill="#000000" stroke="none">
<path d="M1237 2512 c-17 -19 -47 -120 -47 -159 0 -19 -5 -23 -29 -23 -16 0
-36 -3 -44 -6 -11 -4 -21 8 -37 43 -37 84 -69 123 -101 123 -16 0 -38 -9 -50
-21 -19 -19 -21 -30 -17 -109 l4 -89 -39 -15 -39 -15 -55 60 c-75 80 -83 84
-128 58 -35 -21 -36 -23 -29 -68 4 -25 15 -68 26 -96 l20 -50 -27 -22 c-30
-27 -48 -29 -65 -8 -21 26 -98 65 -128 65 -17 0 -37 -9 -51 -24 -21 -22 -21
-25 -7 -60 8 -20 29 -56 46 -81 33 -48 33 -64 0 -103 l-20 -24 -52 20 c-29 10
-72 22 -94 26 -45 6 -55 0 -74 -48 -10 -27 -7 -32 58 -95 l69 -66 -12 -35 -12
-35 -94 -1 c-52 0 -100 -3 -106 -7 -6 -4 -14 -23 -17 -42 -9 -44 9 -62 103
-106 l63 -30 -6 -42 c-4 -23 -8 -43 -10 -44 -2 -2 -28 -8 -58 -13 -83 -13
-124 -33 -132 -65 -14 -54 15 -74 148 -102 34 -7 41 -13 49 -42 11 -46 5 -56
-49 -81 -27 -11 -63 -32 -82 -46 -29 -23 -32 -30 -27 -57 11 -51 29 -59 127
-55 l87 4 17 -38 17 -38 -61 -56 c-69 -62 -82 -92 -58 -129 21 -32 53 -32 142
-3 l67 22 23 -28 c29 -33 30 -46 4 -79 -11 -14 -31 -49 -45 -78 l-24 -54 26
-27 c15 -16 33 -28 40 -28 19 0 91 37 131 67 l33 25 35 -27 c25 -19 33 -32 28
-44 -24 -55 -43 -120 -44 -148 0 -26 6 -36 30 -48 16 -8 36 -15 45 -15 16 0
106 83 123 114 9 18 13 19 51 6 l40 -13 -6 -57 c-3 -32 -3 -78 1 -103 6 -42 9
-45 46 -55 38 -9 41 -8 67 22 14 17 37 55 49 84 22 47 27 52 56 52 47 0 55 -8
67 -73 6 -32 18 -73 27 -92 15 -32 20 -35 59 -35 41 0 44 2 59 41 9 23 19 62
23 88 8 60 18 71 62 71 34 0 38 -3 50 -37 14 -38 64 -117 80 -127 11 -7 74 14
84 28 4 6 7 51 5 100 l-2 90 38 17 39 17 31 -41 c17 -22 48 -54 69 -70 37 -30
37 -30 72 -14 31 15 35 21 35 57 0 22 -10 68 -21 102 l-22 62 29 23 c34 27 47
29 65 7 19 -24 111 -74 135 -74 11 0 31 11 43 24 30 32 23 66 -30 141 -21 31
-39 59 -39 62 0 3 11 21 25 39 l24 32 58 -24 c32 -13 77 -24 100 -24 37 0 44
4 58 30 22 42 14 60 -55 124 -64 58 -67 67 -46 106 13 23 18 24 102 22 49 -2
94 1 100 5 7 4 16 25 22 46 10 35 9 38 -21 61 -18 14 -57 36 -87 50 -52 24
-55 27 -51 58 4 46 14 54 69 61 26 3 67 13 90 22 40 16 42 19 42 59 0 50 -13
59 -125 85 l-70 17 -3 42 c-3 34 0 43 15 48 41 12 102 47 126 72 23 25 24 30
14 61 -15 44 -47 54 -144 46 l-71 -6 -12 36 -12 35 66 64 c36 35 66 71 66 81
0 9 -8 30 -17 47 -17 28 -21 29 -63 23 -24 -4 -68 -16 -98 -27 -52 -19 -54
-19 -68 -1 -34 43 -37 54 -17 76 26 30 48 67 66 110 15 35 15 36 -14 66 -25
26 -32 29 -54 21 -41 -16 -88 -41 -121 -66 l-30 -24 -32 28 -33 27 20 56 c11
31 23 75 27 97 6 40 5 41 -35 62 l-42 21 -70 -70 -69 -69 -38 14 -37 15 4 90
c3 101 -3 115 -55 125 -41 8 -58 -9 -105 -103 -33 -65 -39 -68 -105 -48 -6 2
-14 27 -18 56 -8 59 -31 119 -49 131 -21 14 -63 8 -80 -10z m291 -311 c325
-94 575 -349 663 -676 27 -97 32 -326 11 -415 -76 -314 -263 -547 -537 -670
-138 -62 -205 -75 -385 -74 -149 0 -173 3 -253 27 -172 53 -303 133 -422 258
-168 177 -250 364 -262 599 -13 257 74 488 255 682 110 116 219 190 357 240
139 51 180 57 360 53 105 -3 158 -9 213 -24z"/>
<path d="M1110 2092 c-215 -52 -387 -170 -504 -345 -96 -145 -136 -276 -136
-450 0 -235 76 -417 244 -582 168 -165 384 -246 616 -232 337 21 630 250 729
570 75 244 37 492 -109 708 -95 139 -279 270 -450 319 -106 31 -288 36 -390
12z m76 -116 c3 -7 -2 -107 -10 -222 -12 -152 -20 -212 -31 -223 -17 -17 -51
-4 -275 107 -169 84 -170 86 -66 175 86 73 170 121 271 153 82 27 104 29 111
10z m322 -14 c44 -16 106 -44 137 -63 77 -46 185 -146 185 -170 0 -28 -382
-214 -409 -199 -20 10 -22 28 -41 298 -6 79 -8 148 -4 153 9 16 50 10 132 -19z
m-679 -536 c137 -94 171 -122 171 -140 0 -18 -35 -46 -180 -144 -102 -69 -186
-119 -194 -116 -25 10 -56 157 -56 266 0 70 24 208 42 241 6 11 17 17 27 14
10 -2 95 -57 190 -121z m1130 87 c25 -93 31 -134 31 -215 0 -74 -16 -186 -36
-250 -10 -34 -50 -16 -219 100 -143 99 -170 121 -170 142 0 21 27 43 175 143
96 64 182 117 192 117 12 0 20 -12 27 -37z m-741 -35 c21 -21 13 -49 -22 -89
-62 -68 -56 -149 16 -202 83 -61 213 24 194 127 -4 21 -22 54 -42 75 -50 56
-42 101 17 101 20 0 38 -12 66 -44 68 -77 81 -166 38 -253 -41 -82 -112 -124
-208 -124 -149 0 -252 134 -217 282 22 91 117 168 158 127z m-58 -450 c5 -13
16 -113 24 -223 18 -244 21 -236 -85 -205 -94 28 -168 65 -246 124 -63 47
-123 109 -123 126 0 11 40 32 245 132 77 37 148 68 158 68 9 0 22 -10 27 -22z
m486 -67 c147 -72 184 -94 184 -109 0 -25 -108 -125 -184 -171 -65 -39 -217
-94 -249 -89 -21 3 -22 7 -19 83 3 105 22 335 28 358 10 31 52 18 240 -72z"/>
</g>
</svg>
